<?xml version="1.0" encoding="UTF-8" standalone="no"?>
<!-- Generator: Fusion 360, Shaper Origin Export Add-In, Version 1.7.0  -->

<svg
   shaper:fusionaddin="version:1.7.0"
   width="2.65cm"
   height="0.5187394cm"
   version="1.1"
   x="0cm"
   y="0cm"
   viewBox="0 0 2.65 0.5187394"
   enable-background="new 0 0 2.65 0.5187394"
   xml:space="preserve"
   id="svg4"
   sodipodi:docname="Nintendo DS Cartridge Label Template 2.svg"
   inkscape:version="1.1.1 (3bf5ae0d25, 2021-09-20)"
   xmlns:inkscape="http://www.inkscape.org/namespaces/inkscape"
   xmlns:sodipodi="http://sodipodi.sourceforge.net/DTD/sodipodi-0.dtd"
   xmlns="http://www.w3.org/2000/svg"
   xmlns:svg="http://www.w3.org/2000/svg"
   xmlns:shaper="http://www.shapertools.com/namespaces/shaper"><defs
     id="defs8" /><sodipodi:namedview
     id="namedview6"
     pagecolor="#ffffff"
     bordercolor="#666666"
     borderopacity="1.0"
     inkscape:pageshadow="2"
     inkscape:pageopacity="0.0"
     inkscape:pagecheckerboard="0"
     inkscape:document-units="cm"
     showgrid="false"
     inkscape:zoom="14.487185"
     inkscape:cx="50.044229"
     inkscape:cy="9.8017662"
     inkscape:window-width="1920"
     inkscape:window-height="986"
     inkscape:window-x="-11"
     inkscape:window-y="-11"
     inkscape:window-maximized="1"
     inkscape:current-layer="svg4" /><path
     d="M0.3041205,1.179486 A0.1,0.1 90 0,0 0.3541205,1.1660886 L0.40945,1.1341441 A0.1,0.1 240 0,1 0.4664012,1.1209885 L1.3059155,1.179486 1.3059155,1.539486 1.3059155,1.639486 1.2059155,1.639486 -1.2440845,1.639486 -1.3440845,1.639486 -1.3440845,1.539486 -1.3440845,1.179486 -0.5045703,1.1209885 A0.1,0.1 266.014061 0,1 -0.4476191,1.1341441 L-0.3922896,1.1660886 A0.1,0.1 120 0,0 -0.3422896,1.179486 L0.3041205,1.179486z"
     transform="matrix(1,0,0,-1,1.3440845,1.639486)"
     fill="rgb(0,0,0)"
     stroke-linecap="round"
     stroke-linejoin="round"
     id="path2"
     style="stroke:none;stroke-width:0;stroke-miterlimit:4;stroke-dasharray:none" /></svg>
