<?xml version="1.0" encoding="utf-8"?>
<!-- Generator: Fusion 360, Shaper Origin Export Add-In, Version 1.6.3  -->
<svg xmlns="http://www.w3.org/2000/svg" xmlns:xlink="http://www.w3.org/1999/xlink" xmlns:shaper="http://www.shapertools.com/namespaces/shaper" shaper:fusionaddin="version:1.6.3" width="10.4cm" height="3.6cm" version="1.1" x="0cm" y="0cm" viewBox="0 0 10.4 3.6" enable-background="new 0 0 10.4 3.6" xml:space="preserve"><path d="M5.1963306,0.8431667 L5.1963306,3.6431667 5.1963306,3.6431667 5.1952681,3.6730587 5.1920863,3.7027836 5.1868032,3.732175 5.1794483,3.7610687 5.1700626,3.7893031 5.1586988,3.8167202 5.1454203,3.8431667 5.1303014,3.8684947 5.1134266,3.8925626 5.0948903,3.9152358 5.0747963,3.9363874 5.0532567,3.9558992 5.0303922,3.9736622 5.0063306,3.9895768 4.9812064,4.0035542 4.9551602,4.0155162 4.9283376,4.0253958 4.9008886,4.0331378 4.8729667,4.038699 4.8447281,4.0420482 4.8163306,4.0431667 -4.8236694,4.0431667 -4.8236694,4.0431667 -4.8520668,4.0420482 -4.8803054,4.038699 -4.9082273,4.0331378 -4.9356763,4.0253958 -4.962499,4.0155162 -4.9885452,4.0035542 -5.0136694,3.9895768 -5.037731,3.9736622 -5.0605955,3.9558992 -5.082135,3.9363874 -5.1022291,3.9152358 -5.1207653,3.8925626 -5.1376401,3.8684947 -5.152759,3.8431667 -5.1660375,3.8167202 -5.1774014,3.7893031 -5.186787,3.7610687 -5.194142,3.732175 -5.1994251,3.7027836 -5.2026068,3.6730587 -5.2036694,3.6431667 -5.2036694,0.8431667 -5.2036694,0.8431667 -5.2026068,0.8132746 -5.1994251,0.7835497 -5.194142,0.7541583 -5.186787,0.7252646 -5.1774014,0.6970302 -5.1660375,0.6696132 -5.152759,0.6431667 -5.1376401,0.6178386 -5.1207653,0.5937707 -5.1022291,0.5710976 -5.082135,0.5499459 -5.0605955,0.5304341 -5.037731,0.5126711 -5.0136694,0.4967565 -4.9885452,0.4827791 -4.962499,0.4708172 -4.9356763,0.4609375 -4.9082273,0.4531955 -4.8803054,0.4476343 -4.8520668,0.4442851 -4.8236694,0.4431667 4.8163306,0.4431667 4.8163306,0.4431667 4.8447281,0.4442851 4.8729667,0.4476343 4.9008886,0.4531955 4.9283376,0.4609375 4.9551602,0.4708172 4.9812064,0.4827791 5.0063306,0.4967565 5.0303922,0.5126711 5.0532567,0.5304341 5.0747963,0.5499459 5.0948903,0.5710976 5.1134266,0.5937707 5.1303014,0.6178386 5.1454203,0.6431667 5.1586988,0.6696132 5.1700626,0.6970302 5.1794483,0.7252646 5.1868032,0.7541583 5.1920863,0.7835497 5.1952681,0.8132746 5.1963306,0.8431667z" transform="matrix(1,0,0,-1,5.2036694,4.0431667)" fill="rgb(0,0,0)" shaper:cutDepth="0" stroke-linecap="round" stroke-linejoin="round" /></svg>